# xmcd
#
# Track frame offsets: 
#        150
#        9125
#        22165
#        41280
#        50520
#        61710
#        73840
#        84915
#        95335
#        108040
#        120377
#        133365
#        144622
#        154380
#        174020
#        188675
#        206880
#        218130
#        227455
#        241912
#        252677
#        267450
#        280522
#        293772
#
# Disc length: 4173 seconds
#
# Revision: 1
# Processed by: cddbd v1.5.2PL0 Copyright (c) Steve Scherf et al.
# Submitted via: ExactAudioCopy v1.0b3
#
DISCID=4e104b18
DTITLE=Baylor Brothers, The - The Best Of The Baylor Brothers
DYEAR=2000
DGENRE=Western Swing
TTITLE0=Country Cattin'
TTITLE1=Cajun Boy
TTITLE2=Milk Cow Blues
TTITLE3=Three's Company
TTITLE4=I Had Someone Else
TTITLE5=Blue Night
TTITLE6=Square Dance Mama
TTITLE7=Bitter Tears
TTITLE8=Tulsa Baby
TTITLE9=Diggy Liggy Li
TTITLE10=Blue Yodel No.4
TTITLE11=Airmail Special
TTITLE12=Poker Machine Bug
TTITLE13=Trouble In Mind
TTITLE14=My Window Faces The South
TTITLE15=Cottenpatch Rag
TTITLE16=Bullfiddle Boogie
TTITLE17=Losing Game
TTITLE18=Way Downtown
TTITLE19=The Way You're Treating Me
TTITLE20=Jesse Polka
TTITLE21=It Hurts Me
TTITLE22=Boogie Woogie Fever
TTITLE23=Ballad Of Jole Blon
EXTD=ID3G: 2
EXTT0=
EXTT1=
EXTT2=
EXTT3=
EXTT4=
EXTT5=
EXTT6=
EXTT7=
EXTT8=
EXTT9=
EXTT10=
EXTT11=
EXTT12=
EXTT13=
EXTT14=
EXTT15=
EXTT16=
EXTT17=
EXTT18=
EXTT19=
EXTT20=
EXTT21=
EXTT22=
EXTT23=
PLAYORDER=
